<svg xmlns="http://www.w3.org/2000/svg" width="200.282" height="44.49" viewBox="0 0 200.282 44.49"><defs><style>.a{fill:#cf2e2e;fill-rule:evenodd;}</style></defs><path class="a" d="M262.74,291.1h-.293L260.9,295.6h3.38Zm-3.869,10.357h-3.458l4.963-13.679h4.435l4.964,13.679h-3.459l-1.055-3.049h-5.336Zm-8.539-13.679h3.322V299.6c0,2.7-1.562,4.846-4.318,6.35l-1.622-2.677a4.224,4.224,0,0,0,2.619-3.674Zm-9.907,11c2.189,0,3.675-1.875,3.675-4.162s-1.486-4.162-3.675-4.162-3.673,1.877-3.673,4.162S238.237,298.783,240.425,298.783Zm0-11.353a7.194,7.194,0,1,1-6.995,7.19A7.032,7.032,0,0,1,240.425,287.431Zm-13.15.351H230.6V301.46h-3.322Zm-10.9,2.872v2.971H219.5a1.487,1.487,0,1,0,0-2.971Zm2.6,5.823h-2.6v4.983H213.05V287.782H219.5c3.067,0,4.846,1.72,4.846,4.377a4.123,4.123,0,0,1-2.15,3.771l2.54,5.53h-3.518Zm-19.7-5.374h-.293l-1.544,4.495h3.38Zm-3.869,10.357h-3.459l4.963-13.679h4.436l4.964,13.679h-3.458l-1.056-3.049h-5.335Zm-10.864-2.873h6.234v2.873H181.22V287.782h3.322Zm-11.371-10.806v2.872h-6.976v2.462h6.41v2.873h-6.41v2.6h7.21v2.873H162.872V287.782Zm-19.423,10.806c2.267,0,3.772-1.582,3.772-4.025a3.658,3.658,0,0,0-3.772-3.909h-2.228v7.934ZM148.2,287.782h5.568c4.1,0,7.055,2.736,7.055,6.781,0,4.259-2.95,6.9-7.074,6.9H148.2Zm133.613-9.127c2.267,0,3.772-1.584,3.772-4.026a3.658,3.658,0,0,0-3.772-3.908h-2.228v7.934Zm-5.551-10.807h5.57c4.1,0,7.054,2.736,7.054,6.781,0,4.259-2.95,6.9-7.074,6.9h-5.551Zm-8.792,3.321h-.293l-1.543,4.5h3.381ZM263.6,281.526h-3.458l4.963-13.678h4.435l4.964,13.678h-3.459l-1.055-3.048h-5.335Zm-11.313-2.871c2.266,0,3.771-1.584,3.771-4.026a3.658,3.658,0,0,0-3.771-3.908h-2.228v7.934Zm-5.55-10.807h5.569c4.1,0,7.054,2.736,7.054,6.781,0,4.259-2.951,6.9-7.074,6.9h-5.55Zm-6.741,0h3.321v13.678H240Zm-4.24,3.185a13.351,13.351,0,0,0-3.439-.507c-1.642,0-2.131.449-2.131,1.055,0,.489.255.821,1.135,1.075l2.579.723c2.619.743,3.361,2.15,3.361,4.143,0,2.618-1.759,4.357-5.784,4.357a15.435,15.435,0,0,1-4.71-.8l.664-2.873a13.364,13.364,0,0,0,3.987.625c1.855,0,2.52-.429,2.52-1.328,0-.7-.645-1.133-1.582-1.387l-2.463-.664a3.691,3.691,0,0,1-3.028-3.889c0-1.973,1.6-4.064,5.237-4.064a14.121,14.121,0,0,1,4.631.762Zm-19.11-.312v2.97h3.127a1.487,1.487,0,1,0,0-2.97Zm2.6,5.824h-2.6v4.982h-3.323V267.848h6.449c3.067,0,4.846,1.719,4.846,4.377a4.122,4.122,0,0,1-2.15,3.77l2.541,5.53h-3.518Zm-8.987-8.7v2.873h-6.976v2.462h6.41v2.873h-6.41v2.6h7.21v2.871H199.959V267.848Zm-19.071,10.435,3.4-10.435H198.1l-4.573,13.678h-4.495l-4.573-13.678h3.518Zm-11.9-10.435h3.322v13.678h-3.322Zm-6.7,13.678-5.843-8.324v8.324h-3.283V267.848h3.283l5.843,8.383v-8.383h3.282v13.678Zm-12.447-5.568a6.019,6.019,0,0,1-12.037,0v-8.11h3.321v8.324a2.7,2.7,0,0,0,5.394,0v-8.324h3.322ZM114.5,285.3a3.009,3.009,0,0,0,.646-.106,6.763,6.763,0,0,0,1.1-.709,12.078,12.078,0,0,0,1.1-1.527l.269-.883c.047-.251.553-1.123.7-1.49.186-.439.6-1.065.618-1.187.067-.33.214-1.088.311-1.385l.245-.947a2.238,2.238,0,0,1,.124-.7,8.279,8.279,0,0,0,.667-1.322c0-.112-.064-.616-.064-.616l.632-2.23a3.777,3.777,0,0,0-.2-1.173c-.17-.451-.548-.258-.762-.381a1.328,1.328,0,0,0-.688-.148c-.363.1-.737.216-.852.221a11.909,11.909,0,0,0-1.274.264c-.975.437-1.191.557-1.236.808-.038.21-.033.433-.072.6s-.209.378-.209.489l-.032,1.1a9.4,9.4,0,0,1-.149.965c-.04.142-.262.977-.319,1.278-.032.182-.119.883-.119.993a3.1,3.1,0,0,1-.106.9c-.072.192-.349.71-.361.746a9.162,9.162,0,0,0-.166,1.285c0,.109-.2,1.439-.257,1.875a12.7,12.7,0,0,0,.062,1.543c0,.109-.332,1.49-.325,1.769C113.986,285.353,114.387,285.3,114.5,285.3Zm-.427,11.863c-.187,0-.644-.579-.859-.881-.046-.066-.56-.969-.94-1.123-.684-.058-.594-.3-1.412-.532-.513-.087-.484-.2-.887-.222-.262-.009-.513.3-.969.435-.259.078-1.1.889-1.275.909a6.482,6.482,0,0,1-.828-1.436c0-.108.187-.3.293-.424a6.789,6.789,0,0,0,1.036-.436,2.914,2.914,0,0,0,1.368-1.862,10.614,10.614,0,0,0,.468-1.49,19.494,19.494,0,0,0,.043-2.182c.016-.194-.041-1.261-.041-1.261,0-.109-.088-.447-.088-.559a2.2,2.2,0,0,1,.291-.838c.023-.083.158-1.6.158-1.6l.091-1.407a4.217,4.217,0,0,1,.525-1.842,5.545,5.545,0,0,0-.013-1.183l.032-.572c0-.112.209-.311.255-.448a2.3,2.3,0,0,0,.075-.477l.076-.8c0-.474.453-2.7.453-2.81s.122-.486.135-.705l.044-.9c0-.111-.044-.5-.088-.947a4.108,4.108,0,0,0-.127-1.07c0-.13.05-.414-.14-.414a11.047,11.047,0,0,1-1.343.412.912.912,0,0,1-.39-.705,9.932,9.932,0,0,1,1.655-1.021,5.032,5.032,0,0,1,.988-.268,11.526,11.526,0,0,1,1.746.673,2.685,2.685,0,0,0,1.722.419,21.544,21.544,0,0,1,2.718-.817,3.648,3.648,0,0,1,1.115.246c.13.032,1.437.1,1.437.1a13.46,13.46,0,0,1,1.325.514,6.208,6.208,0,0,1,1.093.3,4.617,4.617,0,0,1,1.322,1.648,21.976,21.976,0,0,1,.187,2.725c.035.133.081,1.155.081,1.266a3.324,3.324,0,0,1-.2.892c-.255.69-.717,2.44-1.036,3.1-.143.284-.8,1.338-1,1.633-.21.192-.975,1.2-1.009,1.244a2.6,2.6,0,0,1-.437.823,7.151,7.151,0,0,1-1.186.668c-.117.042-.414-.108-.591.134a3.646,3.646,0,0,1-.122.662,4.961,4.961,0,0,1-1.35.848,8.366,8.366,0,0,0-1.157-.149,5.044,5.044,0,0,1-.487.2l1.6.623c.112,0,1.669.248,1.669.248a5.422,5.422,0,0,1,.776.425c.075.046.767.159,1.034.291,0,0,1.46.209,1.613.263.215.077.459.3.691.324a7.675,7.675,0,0,1,1.36.159c.3.095,1.776,1.028,1.891,1.057.315.109,1.665.689,1.836.745.112.035.756.393.9.43a3.343,3.343,0,0,0,1.542.134.381.381,0,0,1,.2.564,1.7,1.7,0,0,1-.749.32l-.3.037c-.369-.066-.751-.115-.874-.151a5.383,5.383,0,0,0-.761-.379c-.264.008-.4-.053-.639-.04a1.506,1.506,0,0,0-.85.671,5.422,5.422,0,0,0,.048,1.292c0,.109-.337.378-.438.511a14.043,14.043,0,0,1-.775,1.723c-.173.2-.874-.105-.869-.2a4.926,4.926,0,0,1,.148-1.062,2.713,2.713,0,0,0,.415-1.473c-.04-.037-1.165-1.362-1.306-1.44a22.954,22.954,0,0,0-2.51-1.55,12.148,12.148,0,0,1-1.335-.245,13.33,13.33,0,0,1-1.263-.763c-.439-.114-1.418-.68-1.667-.745a14.8,14.8,0,0,0-1.632-.374c-.388-.054-1.081-.405-1.448-.427-.95-.062-1.111-.118-1.22-.045a.83.83,0,0,0-.43.718,8.349,8.349,0,0,0,.015,2v1.5c0,.11-.185,1.487-.217,1.524-.009.391-.057.828-.057.937a8.717,8.717,0,0,0,.734,1.587,5.523,5.523,0,0,1,.784.821,4.24,4.24,0,0,1,.088,1.111A1.364,1.364,0,0,1,114.073,297.166Zm-9.8-8c-.129-.381-.1-.881-.251-1.258a3.521,3.521,0,0,0-.644-.8,9.852,9.852,0,0,0-.634-.926,1.275,1.275,0,0,0-.415-.1.65.65,0,0,0-.411.183,4,4,0,0,1-1.13.949c-.164.066-1.331.864-1.706,1.077-.129.072-.252.272-.454.335-.58.159-.76.478-1.163.579-.049.02-.668-.018-.78-.018s-.558.085-.671.085a3.3,3.3,0,0,0-.513-.062,5.363,5.363,0,0,1-.857.24l-.571-.091c-.142-.141-.357-.247-.448-.366s-.141-.33-.253-.5a2.4,2.4,0,0,0-1.183-.908,2.091,2.091,0,0,1-.593-.424c-.218-.168-.637-.454-.714-.668a14.246,14.246,0,0,1-.523-1.644c-.026-.043-.03-.774-.03-.884,0-.509-.361-.373-.361-.811a6.941,6.941,0,0,0,.047-1.015,4.468,4.468,0,0,0,.4-1.166c0-.11-.228-1.5-.228-1.617a9.118,9.118,0,0,1,.24-1.488,2.12,2.12,0,0,1,.365-.909,3.823,3.823,0,0,1,.814-.624,3.59,3.59,0,0,1,.939-.1c.113,0,1.975.665,2.007,1.262.008.185-.194.448-.307.79a3.9,3.9,0,0,1-.178.736,12.766,12.766,0,0,1-1.487,1.337,4.038,4.038,0,0,0-.323,1.268,1.536,1.536,0,0,0,.161.777c.09.158.214.932.472,1.163.236.208.606.229.842.414a5.527,5.527,0,0,1,.482.485c.061.061.656.756.768.756,0,0,1.9,0,2.117.042l1.908.3c.242.028.9-.26,1.307-.254l.725-.046c.212-.012.808-.607,1.072-.821a17.743,17.743,0,0,0,1.25-1.322v-1.84c0-.27-.217-.484-.3-.63a6.606,6.606,0,0,1-.255-.7c-.045-.1-.253-.36-.267-.4-.476-.263-1.04-.442-1.449-.689a4.924,4.924,0,0,1-.922-1.014c-.036-.226.235-.741.219-.787l-.056-.613a4.509,4.509,0,0,1,1.454-1.99c.221.005.765.064.877.064s.516-.136.63-.136c.494,0,.385.663.437.827.055.179.426.924.509,1.12.051.126.086.318.137.5.033.13.349.894.439,1.272a3.765,3.765,0,0,0,.548,1.693c.062.591.153,1.694.153,1.807s-.136,1.124-.136,1.236a10.054,10.054,0,0,0,.547,2.439c.118.208.391.356.6.582a3.282,3.282,0,0,0,.681.694,12.964,12.964,0,0,1,1.315.881,2.79,2.79,0,0,1-.054,1.271,2.48,2.48,0,0,0-.682.815,2.029,2.029,0,0,1-.819.824l-.685.084A2.529,2.529,0,0,1,104.271,289.164ZM119.383,299.6c1.9,0,2.811,1.2,4.819,1.2s2.915-1.2,4.821-1.2c1.65,0,2.552.9,4.072,1.144v-38.39H88.6v3.707h18.576v2.351H88.6v38.433h44.491V303.1c-1.52-.241-2.422-1.145-4.072-1.145-1.906,0-2.815,1.205-4.821,1.205s-2.914-1.205-4.819-1.205-2.812,1.205-4.82,1.205V300.8C116.571,300.8,117.478,299.6,119.383,299.6Z" transform="translate(-88.603 -262.352)"/></svg>